<mxfile host="app.diagrams.net" modified="2021-08-18T10:38:13.216Z" agent="5.0 (Windows NT 10.0; Win64; x64) AppleWebKit/537.36 (KHTML, like Gecko) Chrome/92.0.4515.131 Safari/537.36" etag="C8YQd1RrN_HugY0fmZ4k" version="14.9.7" type="github">
  <diagram name="Page-1" id="03018318-947c-dd8e-b7a3-06fadd420f32">
    <mxGraphModel dx="3656" dy="1094" grid="1" gridSize="10" guides="1" tooltips="1" connect="1" arrows="1" fold="1" page="1" pageScale="1" pageWidth="1100" pageHeight="850" background="#ffffff" math="0" shadow="0">
      <root>
        <mxCell id="0" />
        <mxCell id="1" parent="0" />
        <mxCell id="dOnmbPh4RmNoJl7yQcrb-50" value="" style="whiteSpace=wrap;html=1;aspect=fixed;shadow=0;fillColor=none;" vertex="1" parent="1">
          <mxGeometry x="40" y="537.25" width="118.5" height="118.5" as="geometry" />
        </mxCell>
        <mxCell id="dOnmbPh4RmNoJl7yQcrb-2" value="" style="edgeStyle=orthogonalEdgeStyle;rounded=0;orthogonalLoop=1;jettySize=auto;html=1;exitX=0.5;exitY=1;exitDx=0;exitDy=0;" edge="1" parent="1" source="dOnmbPh4RmNoJl7yQcrb-50" target="dOnmbPh4RmNoJl7yQcrb-1">
          <mxGeometry relative="1" as="geometry">
            <Array as="points">
              <mxPoint x="99" y="740" />
            </Array>
          </mxGeometry>
        </mxCell>
        <mxCell id="677b7b8949515195-1" value="" style="whiteSpace=wrap;html=1;rounded=0;shadow=0;labelBackgroundColor=none;strokeColor=#000000;strokeWidth=1;fillColor=none;fontFamily=Verdana;fontSize=12;fontColor=#000000;align=center;comic=1;" parent="1" vertex="1">
          <mxGeometry x="20" y="20" width="1060" height="810" as="geometry" />
        </mxCell>
        <mxCell id="677b7b8949515195-2" value="블로그 제목" style="whiteSpace=wrap;html=1;rounded=0;shadow=0;labelBackgroundColor=none;strokeWidth=1;fontFamily=Verdana;fontSize=28;align=center;comic=1;" parent="1" vertex="1">
          <mxGeometry x="40" y="80" width="190" height="50" as="geometry" />
        </mxCell>
        <mxCell id="677b7b8949515195-8" value="" style="whiteSpace=wrap;html=1;rounded=0;shadow=0;labelBackgroundColor=none;strokeWidth=1;fillColor=none;fontFamily=Verdana;fontSize=12;align=center;comic=1;" parent="1" vertex="1">
          <mxGeometry x="30" y="230" width="200" height="590" as="geometry" />
        </mxCell>
        <mxCell id="677b7b8949515195-9" value="" style="line;strokeWidth=1;html=1;rounded=0;shadow=0;labelBackgroundColor=none;fillColor=none;fontFamily=Verdana;fontSize=14;fontColor=#000000;align=center;comic=1;" parent="1" vertex="1">
          <mxGeometry x="20" y="180" width="1060" height="10" as="geometry" />
        </mxCell>
        <mxCell id="677b7b8949515195-16" value="" style="verticalLabelPosition=bottom;shadow=0;dashed=0;align=center;html=1;verticalAlign=top;strokeWidth=1;shape=mxgraph.mockup.graphics.simpleIcon;strokeColor=#999999;rounded=0;labelBackgroundColor=none;fontFamily=Verdana;fontSize=14;fontColor=#000000;comic=1;" parent="1" vertex="1">
          <mxGeometry x="250" y="230" width="810" height="400" as="geometry" />
        </mxCell>
        <mxCell id="677b7b8949515195-27" value="Section 1" style="text;html=1;points=[];align=left;verticalAlign=top;spacingTop=-4;fontSize=14;fontFamily=Verdana" parent="1" vertex="1">
          <mxGeometry x="45" y="550.5" width="170" height="20" as="geometry" />
        </mxCell>
        <mxCell id="677b7b8949515195-28" value="Section 2" style="text;html=1;points=[];align=left;verticalAlign=top;spacingTop=-4;fontSize=14;fontFamily=Verdana" parent="1" vertex="1">
          <mxGeometry x="45" y="586.5" width="170" height="20" as="geometry" />
        </mxCell>
        <mxCell id="677b7b8949515195-29" value="Section 3" style="text;html=1;points=[];align=left;verticalAlign=top;spacingTop=-4;fontSize=14;fontFamily=Verdana" parent="1" vertex="1">
          <mxGeometry x="45" y="621.5" width="170" height="20" as="geometry" />
        </mxCell>
        <mxCell id="dOnmbPh4RmNoJl7yQcrb-1" value="" style="whiteSpace=wrap;html=1;rounded=0;shadow=0;labelBackgroundColor=none;strokeColor=#000000;strokeWidth=1;fillColor=none;fontFamily=Verdana;fontSize=12;fontColor=#000000;align=center;comic=1;" vertex="1" parent="1">
          <mxGeometry x="1160" y="20" width="1020" height="810" as="geometry" />
        </mxCell>
        <mxCell id="dOnmbPh4RmNoJl7yQcrb-20" value="블로그 제목" style="whiteSpace=wrap;html=1;rounded=0;shadow=0;labelBackgroundColor=none;strokeWidth=1;fontFamily=Verdana;fontSize=28;align=center;comic=1;" vertex="1" parent="1">
          <mxGeometry x="1180" y="80" width="190" height="50" as="geometry" />
        </mxCell>
        <mxCell id="dOnmbPh4RmNoJl7yQcrb-21" value="" style="whiteSpace=wrap;html=1;rounded=0;shadow=0;labelBackgroundColor=none;strokeWidth=1;fillColor=none;fontFamily=Verdana;fontSize=12;align=center;comic=1;" vertex="1" parent="1">
          <mxGeometry x="1170" y="230" width="200" height="590" as="geometry" />
        </mxCell>
        <mxCell id="dOnmbPh4RmNoJl7yQcrb-22" value="" style="line;strokeWidth=1;html=1;rounded=0;shadow=0;labelBackgroundColor=none;fillColor=none;fontFamily=Verdana;fontSize=14;fontColor=#000000;align=center;comic=1;" vertex="1" parent="1">
          <mxGeometry x="1160" y="180" width="1020" height="10" as="geometry" />
        </mxCell>
        <mxCell id="dOnmbPh4RmNoJl7yQcrb-28" value="&lt;div style=&quot;text-align: justify&quot;&gt;&lt;br&gt;&lt;/div&gt;" style="whiteSpace=wrap;html=1;rounded=0;shadow=0;labelBackgroundColor=none;strokeWidth=1;fillColor=none;fontFamily=Verdana;fontSize=12;align=center;verticalAlign=top;spacing=10;comic=1;" vertex="1" parent="1">
          <mxGeometry x="1390" y="230" width="780" height="590" as="geometry" />
        </mxCell>
        <mxCell id="dOnmbPh4RmNoJl7yQcrb-35" value="&lt;font style=&quot;font-size: 72px&quot;&gt;대문 이미지&lt;/font&gt;" style="text;html=1;strokeColor=none;fillColor=none;align=center;verticalAlign=middle;whiteSpace=wrap;rounded=0;" vertex="1" parent="1">
          <mxGeometry x="315" y="425" width="655" height="20" as="geometry" />
        </mxCell>
        <mxCell id="dOnmbPh4RmNoJl7yQcrb-36" value="대문 이미지 수정" style="rounded=1;whiteSpace=wrap;html=1;" vertex="1" parent="1">
          <mxGeometry x="940" y="650" width="120" height="20" as="geometry" />
        </mxCell>
        <mxCell id="dOnmbPh4RmNoJl7yQcrb-38" value="Section 1" style="text;html=1;points=[];align=left;verticalAlign=top;spacingTop=-4;fontSize=14;fontFamily=Verdana" vertex="1" parent="1">
          <mxGeometry x="1185" y="551" width="170" height="20" as="geometry" />
        </mxCell>
        <mxCell id="dOnmbPh4RmNoJl7yQcrb-39" value="Section 2" style="text;html=1;points=[];align=left;verticalAlign=top;spacingTop=-4;fontSize=14;fontFamily=Verdana" vertex="1" parent="1">
          <mxGeometry x="1185" y="587" width="170" height="20" as="geometry" />
        </mxCell>
        <mxCell id="dOnmbPh4RmNoJl7yQcrb-40" value="Section 3" style="text;html=1;points=[];align=left;verticalAlign=top;spacingTop=-4;fontSize=14;fontFamily=Verdana" vertex="1" parent="1">
          <mxGeometry x="1185" y="622" width="170" height="20" as="geometry" />
        </mxCell>
        <mxCell id="dOnmbPh4RmNoJl7yQcrb-42" value="&lt;h1&gt;&lt;font style=&quot;font-size: 72px&quot;&gt;제목&lt;/font&gt;&lt;/h1&gt;&lt;p&gt;&lt;font style=&quot;font-size: 36px&quot;&gt;내용&lt;/font&gt;&lt;/p&gt;" style="text;html=1;strokeColor=none;fillColor=none;spacing=5;spacingTop=-20;whiteSpace=wrap;overflow=hidden;rounded=0;" vertex="1" parent="1">
          <mxGeometry x="1425" y="312" width="710" height="330" as="geometry" />
        </mxCell>
        <mxCell id="dOnmbPh4RmNoJl7yQcrb-43" value="" style="endArrow=none;html=1;exitX=1.004;exitY=0.297;exitDx=0;exitDy=0;exitPerimeter=0;" edge="1" parent="1" source="dOnmbPh4RmNoJl7yQcrb-42">
          <mxGeometry width="50" height="50" relative="1" as="geometry">
            <mxPoint x="1245" y="412" as="sourcePoint" />
            <mxPoint x="1410" y="410" as="targetPoint" />
          </mxGeometry>
        </mxCell>
        <mxCell id="dOnmbPh4RmNoJl7yQcrb-44" value="수정" style="rounded=1;whiteSpace=wrap;html=1;" vertex="1" parent="1">
          <mxGeometry x="2010" y="260" width="60" height="20" as="geometry" />
        </mxCell>
        <mxCell id="dOnmbPh4RmNoJl7yQcrb-45" value="삭제" style="rounded=1;whiteSpace=wrap;html=1;" vertex="1" parent="1">
          <mxGeometry x="2080" y="260" width="60" height="20" as="geometry" />
        </mxCell>
        <mxCell id="dOnmbPh4RmNoJl7yQcrb-46" value="프로필 이미지" style="whiteSpace=wrap;html=1;aspect=fixed;" vertex="1" parent="1">
          <mxGeometry x="45" y="250" width="170" height="170" as="geometry" />
        </mxCell>
        <mxCell id="dOnmbPh4RmNoJl7yQcrb-47" value="&lt;font style=&quot;font-size: 18px&quot;&gt;사용자 이름&lt;/font&gt;" style="text;html=1;strokeColor=none;fillColor=none;align=left;verticalAlign=middle;whiteSpace=wrap;rounded=0;" vertex="1" parent="1">
          <mxGeometry x="45" y="430" width="105" height="20" as="geometry" />
        </mxCell>
        <mxCell id="dOnmbPh4RmNoJl7yQcrb-48" value="프로필 이미지" style="whiteSpace=wrap;html=1;aspect=fixed;" vertex="1" parent="1">
          <mxGeometry x="1185" y="250" width="170" height="170" as="geometry" />
        </mxCell>
        <mxCell id="dOnmbPh4RmNoJl7yQcrb-49" value="&lt;font style=&quot;font-size: 18px&quot;&gt;사용자 이름&lt;/font&gt;" style="text;html=1;strokeColor=none;fillColor=none;align=left;verticalAlign=middle;whiteSpace=wrap;rounded=0;" vertex="1" parent="1">
          <mxGeometry x="1185" y="430" width="105" height="20" as="geometry" />
        </mxCell>
        <mxCell id="dOnmbPh4RmNoJl7yQcrb-53" value="프로필 수정" style="rounded=1;whiteSpace=wrap;html=1;" vertex="1" parent="1">
          <mxGeometry x="45" y="460" width="75" height="20" as="geometry" />
        </mxCell>
        <mxCell id="dOnmbPh4RmNoJl7yQcrb-54" value="" style="endArrow=classic;html=1;exitX=0;exitY=0.5;exitDx=0;exitDy=0;entryX=0;entryY=0.259;entryDx=0;entryDy=0;entryPerimeter=0;" edge="1" parent="1" source="dOnmbPh4RmNoJl7yQcrb-53" target="dOnmbPh4RmNoJl7yQcrb-55">
          <mxGeometry width="50" height="50" relative="1" as="geometry">
            <mxPoint x="990" y="680" as="sourcePoint" />
            <mxPoint x="-70" y="1240" as="targetPoint" />
            <Array as="points">
              <mxPoint x="-80" y="470" />
              <mxPoint x="-80" y="1080" />
            </Array>
          </mxGeometry>
        </mxCell>
        <mxCell id="dOnmbPh4RmNoJl7yQcrb-55" value="" style="whiteSpace=wrap;html=1;rounded=0;shadow=0;labelBackgroundColor=none;strokeColor=#000000;strokeWidth=1;fillColor=none;fontFamily=Verdana;fontSize=12;fontColor=#000000;align=center;comic=1;" vertex="1" parent="1">
          <mxGeometry x="20" y="870" width="1060" height="810" as="geometry" />
        </mxCell>
        <mxCell id="dOnmbPh4RmNoJl7yQcrb-56" value="블로그 제목" style="whiteSpace=wrap;html=1;rounded=0;shadow=0;labelBackgroundColor=none;strokeWidth=1;fontFamily=Verdana;fontSize=28;align=center;comic=1;" vertex="1" parent="1">
          <mxGeometry x="40" y="930" width="190" height="50" as="geometry" />
        </mxCell>
        <mxCell id="dOnmbPh4RmNoJl7yQcrb-58" value="" style="line;strokeWidth=1;html=1;rounded=0;shadow=0;labelBackgroundColor=none;fillColor=none;fontFamily=Verdana;fontSize=14;fontColor=#000000;align=center;comic=1;" vertex="1" parent="1">
          <mxGeometry x="20" y="1030" width="1060" height="10" as="geometry" />
        </mxCell>
        <mxCell id="dOnmbPh4RmNoJl7yQcrb-62" value="" style="whiteSpace=wrap;html=1;rounded=0;shadow=0;labelBackgroundColor=none;strokeWidth=1;fillColor=none;fontFamily=Verdana;fontSize=12;align=center;comic=1;" vertex="1" parent="1">
          <mxGeometry x="35" y="1079" width="200" height="590" as="geometry" />
        </mxCell>
        <mxCell id="dOnmbPh4RmNoJl7yQcrb-63" value="Section 1" style="text;html=1;points=[];align=left;verticalAlign=top;spacingTop=-4;fontSize=14;fontFamily=Verdana" vertex="1" parent="1">
          <mxGeometry x="50" y="1399.5" width="170" height="20" as="geometry" />
        </mxCell>
        <mxCell id="dOnmbPh4RmNoJl7yQcrb-64" value="Section 2" style="text;html=1;points=[];align=left;verticalAlign=top;spacingTop=-4;fontSize=14;fontFamily=Verdana" vertex="1" parent="1">
          <mxGeometry x="50" y="1435.5" width="170" height="20" as="geometry" />
        </mxCell>
        <mxCell id="dOnmbPh4RmNoJl7yQcrb-65" value="Section 3" style="text;html=1;points=[];align=left;verticalAlign=top;spacingTop=-4;fontSize=14;fontFamily=Verdana" vertex="1" parent="1">
          <mxGeometry x="50" y="1470.5" width="170" height="20" as="geometry" />
        </mxCell>
        <mxCell id="dOnmbPh4RmNoJl7yQcrb-66" value="프로필 이미지" style="whiteSpace=wrap;html=1;aspect=fixed;" vertex="1" parent="1">
          <mxGeometry x="50" y="1099" width="170" height="170" as="geometry" />
        </mxCell>
        <mxCell id="dOnmbPh4RmNoJl7yQcrb-67" value="&lt;font style=&quot;font-size: 18px&quot;&gt;사용자 이름&lt;/font&gt;" style="text;html=1;strokeColor=none;fillColor=none;align=left;verticalAlign=middle;whiteSpace=wrap;rounded=0;" vertex="1" parent="1">
          <mxGeometry x="50" y="1279" width="105" height="20" as="geometry" />
        </mxCell>
        <mxCell id="dOnmbPh4RmNoJl7yQcrb-68" value="프로필 수정" style="rounded=1;whiteSpace=wrap;html=1;" vertex="1" parent="1">
          <mxGeometry x="50" y="1309" width="75" height="20" as="geometry" />
        </mxCell>
        <mxCell id="dOnmbPh4RmNoJl7yQcrb-76" value="&lt;div style=&quot;text-align: justify&quot;&gt;&lt;br&gt;&lt;/div&gt;" style="whiteSpace=wrap;html=1;rounded=0;shadow=0;labelBackgroundColor=none;strokeWidth=1;fillColor=none;fontFamily=Verdana;fontSize=12;align=center;verticalAlign=top;spacing=10;comic=1;" vertex="1" parent="1">
          <mxGeometry x="260" y="1079" width="810" height="590" as="geometry" />
        </mxCell>
        <mxCell id="dOnmbPh4RmNoJl7yQcrb-78" value="&lt;font style=&quot;font-size: 18px&quot;&gt;프로필 이미지 수정&lt;/font&gt;" style="rounded=1;whiteSpace=wrap;html=1;" vertex="1" parent="1">
          <mxGeometry x="500" y="1256.25" width="160" height="50" as="geometry" />
        </mxCell>
        <mxCell id="dOnmbPh4RmNoJl7yQcrb-79" value="프로필 이미지" style="whiteSpace=wrap;html=1;aspect=fixed;" vertex="1" parent="1">
          <mxGeometry x="300" y="1191.25" width="170" height="170" as="geometry" />
        </mxCell>
        <mxCell id="dOnmbPh4RmNoJl7yQcrb-80" value="&lt;font style=&quot;font-size: 18px&quot;&gt;사용자 이름&lt;/font&gt;" style="text;html=1;strokeColor=none;fillColor=none;align=left;verticalAlign=middle;whiteSpace=wrap;rounded=0;" vertex="1" parent="1">
          <mxGeometry x="332.5" y="1415.25" width="105" height="20" as="geometry" />
        </mxCell>
        <mxCell id="dOnmbPh4RmNoJl7yQcrb-81" value="&lt;font style=&quot;font-size: 18px&quot;&gt;사용자 이름 수정&lt;/font&gt;" style="rounded=1;whiteSpace=wrap;html=1;" vertex="1" parent="1">
          <mxGeometry x="500" y="1400.25" width="160" height="50" as="geometry" />
        </mxCell>
        <mxCell id="dOnmbPh4RmNoJl7yQcrb-86" value="&lt;font style=&quot;font-size: 18px&quot;&gt;블로그 제목&lt;/font&gt;" style="text;html=1;strokeColor=none;fillColor=none;align=left;verticalAlign=middle;whiteSpace=wrap;rounded=0;" vertex="1" parent="1">
          <mxGeometry x="332.5" y="1516.25" width="105" height="20" as="geometry" />
        </mxCell>
        <mxCell id="dOnmbPh4RmNoJl7yQcrb-87" value="&lt;font style=&quot;font-size: 18px&quot;&gt;블로그 제목 수정&lt;/font&gt;" style="rounded=1;whiteSpace=wrap;html=1;" vertex="1" parent="1">
          <mxGeometry x="500" y="1506.75" width="160" height="50" as="geometry" />
        </mxCell>
        <mxCell id="dOnmbPh4RmNoJl7yQcrb-88" value="Section 1" style="text;html=1;points=[];align=left;verticalAlign=top;spacingTop=-4;fontSize=14;fontFamily=Verdana" vertex="1" parent="1">
          <mxGeometry x="1410" y="260" width="170" height="20" as="geometry" />
        </mxCell>
        <mxCell id="dOnmbPh4RmNoJl7yQcrb-89" value="프로필 수정" style="rounded=1;whiteSpace=wrap;html=1;" vertex="1" parent="1">
          <mxGeometry x="1185" y="460" width="75" height="20" as="geometry" />
        </mxCell>
      </root>
    </mxGraphModel>
  </diagram>
</mxfile>
